<svg xmlns="http://www.w3.org/2000/svg" viewBox="0 0 424.28 257.84"><defs><style>.cls-1,.cls-2{fill:#fff;}.cls-2{stroke:#fff;stroke-miterlimit:10;}</style></defs><title>long b&amp;amp;w sil logo</title><g id="Layer_2" data-name="Layer 2"><g id="Layer_1-2" data-name="Layer 1"><path d="M420.23,106.86c-3.18-12.78-7.63-25.43-19.28-37.5-9-9.33-18-18.56-31.34-27a200.2,200.2,0,0,0-49.12-22.19A457.27,457.27,0,0,0,263.3,6.82,493.52,493.52,0,0,0,168.22.16,662.89,662.89,0,0,0,88.36,7.27C74.19,9.34,62.82,13,53.6,17.86c-11.23,5.89-16.52,13.05-21,20.21-2.47,3.9-5.07,9-5.29,13-15.43,48.55,25.22,161,27.61,171.08a2,2,0,0,1-.59,2.28c-6.05,4.06-12.18,8.1-18.65,12-11.53,7-23.32,14-35.64,21.35,4.8-.59,8.58-1,12.26-1.52Q69.64,248.08,127,239.83a42.85,42.85,0,0,1,6.6-.39c47.46.81,94.92,1.51,142.42.54,27.83-.57,55.1-2.32,81.07-6.76A218.82,218.82,0,0,0,381.19,228c13-3.83,22.62-9.08,28.88-15.31C434.26,185.85,420.23,106.86,420.23,106.86Z"/><path class="cls-1" d="M50.77,78a25.78,25.78,0,0,0,14.5,3.28,13.86,13.86,0,0,0,10.68-6c.89-1.26.48-4.23-.41-5.8-2.19-3.87-6.28-5-10.43-5.75-4.7-.88-9.5-1.57-14-3.07C45.9,59,41.93,53,43,48.92c1.55-5.71,4.53-10.47,10.62-12.4a28.89,28.89,0,0,1,17.24-.31,43.44,43.44,0,0,1,8.22,3.26c1,.53,1.32,2.28,1.95,3.47-1.29.46-2.67,1.46-3.86,1.27-2.09-.32-4-1.62-6.12-2-3.63-.73-7.35-1.6-11-1.52a8.36,8.36,0,0,0-8.29,7.67c-.16,3.56,2.78,6.84,7.32,7.89,3.56.82,7.18,1.37,10.76,2.13a55.82,55.82,0,0,1,6,1.59c5.88,1.95,8.63,5.27,8.8,10.45.19,5.6-3.15,11.3-8.07,13.25-8.84,3.52-17.83,4-26.76.46-2.55-1-4.77-2.83-7.27-4.36C45.18,76.3,47.89,76.46,50.77,78Z"/><path class="cls-1" d="M252.35,82.36c-.72-.54-1.7-1.56-1.59-2.19a2.78,2.78,0,0,1,2.07-1.76,24,24,0,0,1,5.86.88c3.61,1,7.11,2.62,10.77,3.09,5.2.68,9.93-.79,13.42-5.2,1.94-2.45,1.94-4.54.05-7.08-2.81-3.77-6.91-4.55-11.09-5.38-4.36-.86-9-1.18-13-2.92-10.31-4.49-11.14-13.64-3.14-20.78,7-6.26,15.57-5.66,24-3.37a33.16,33.16,0,0,1,7.49,3.22,3.39,3.39,0,0,1,1.31,3,3.44,3.44,0,0,1-3,1.47c-2.43-.45-4.72-1.69-7.15-2.18-3.63-.73-7.37-1.64-11-1.45a8.41,8.41,0,0,0-8,7.63c-.19,3.6,2.58,6.78,7.28,7.92,5.33,1.3,10.75,2.21,16.06,3.56,6.23,1.58,9.32,5.21,9.51,10.59.21,6-3.32,11.6-8.7,13.5A54.4,54.4,0,0,1,276,87a52,52,0,0,1-6.14.51C263.49,87.44,257.51,86.25,252.35,82.36Z"/><path class="cls-1" d="M300.75,44.14c0-2.27.19-4.69,3.16-4.76,3.2-.08,3.4,2.4,3.39,4.83,0,1.6,0,3.2,0,4.8.21,6.19,2.82,9.17,9,9.39a90.34,90.34,0,0,0,14-.62c4-.48,5.62-3.56,5.89-7.31.18-2.51-.19-5.09.3-7.52a5.16,5.16,0,0,1,2.82-3.47c2.19-.62,3.32,1.13,3.36,3.24.12,5.95.19,11.89.18,17.84,0,7.31-.18,14.63-.16,21.94,0,2.38-.94,3.8-3.28,3.82-2.64,0-3-2-3-4.08-.07-3.2,0-6.41-.18-9.61-.34-5.27-2.32-7.92-7.53-8.59A66,66,0,0,0,314.32,64c-4.3.4-6.75,3.63-6.93,8.06-.13,3.31,0,6.63-.07,10,0,2.25-.58,4.13-3.38,4.17-3,0-3.15-2.15-3.17-4.25-.06-6.41,0-12.81,0-19.22C300.75,56.5,300.73,50.32,300.75,44.14Z"/><path class="cls-1" d="M227.7,79.63c0,2.15.74,4.84-2.28,5.8a7,7,0,0,1-7.94-3.13c-3.72-6.16-7.27-12.42-11-18.55a24.59,24.59,0,0,0-4.5-5.39c-4.29-3.83-8.67-2.13-9.29,3.58-.55,5.08-.31,10.24-.41,15.36a24.33,24.33,0,0,1-.14,4.79c-.25,1.12-1.25,2.08-1.92,3.11a18.37,18.37,0,0,1-2.81-2.93c-.42-.67-.17-1.78-.17-2.7,0-11.56,0-23.11,0-34.67,0-2.25.08-4.34,2.74-5.14,3-.91,5.44-.11,7.09,2.53,3.8,6.07,7.47,12.21,11.25,18.28,1.26,2,2.61,4,4.06,5.92A5.7,5.7,0,0,0,219,68.56a5.38,5.38,0,0,0,4-5.36c.26-6.05.16-12.12.35-18.17.06-1.87-.86-4.9,2.06-4.94s2.19,3,2.24,4.89c.13,5.95,0,11.9,0,17.85h0C227.74,68.42,227.8,74,227.7,79.63Z"/><path class="cls-1" d="M242.87,81.67c0,2.22-.18,4.29-3.08,4.29s-2.7-2.4-2.71-4.22C237,68.83,237,55.92,237,43c0-2.05.56-3.61,3.06-3.6s2.72,1.78,2.73,3.53c.06,6.63,0,13.25,0,19.88h0C242.86,69.1,242.84,75.39,242.87,81.67Z"/><path class="cls-1" d="M92.29,41.61c0-3.17,1.08-5,4.59-4.91,8.66.26,17.38-.1,26,.75,7.92.78,11.94,6,11.85,13.83-.09,8-3.5,12.86-11.57,14.76-4.74,1.12-9.74,1.21-14.63,1.6-5.61.45-7.78,2.45-8.26,8-.16,1.83-.28,3.65-.39,5.48-.14,2.5-1.42,3.76-3.95,3.72s-3.5-1.51-3.51-3.75c0-6.76,0-13.51,0-20.27h-.08C92.31,54.44,92.35,48,92.29,41.61Zm6.81,13a27.43,27.43,0,0,0,.56,4.42c.6,3.59,3,5.35,6.39,5.65a54.47,54.47,0,0,0,9.26,0c5-.42,10.18-4.46,10.53-8.39.53-5.86-.59-9.84-6.64-12.51-2.53-1.11-5.5-1.19-8.28-1.74C102.93,42,99.09,43.54,99.1,54.64Z"/><path class="cls-1" d="M151.72,76.86a9.13,9.13,0,0,0-7.32,4.45c-.74,1.22-1.84,2.72-3,3-1.84.49-3.92.06-5.9,0,.05-1.63-.33-3.42.22-4.85,4.91-12.88,10-25.67,15-38.54,1.38-3.61,3.74-4.64,7.4-4.65s5.79,1.26,7.1,4.62c5,12.95,10.21,25.85,15.29,38.78.63,1.61,2.13,3.95-.26,4.71-1.8.57-4.23-.4-6.24-1.11-.92-.33-1.5-1.66-2.21-2.55-3.65-4.59-8.79-4.18-13.82-4C155.83,76.82,153.75,76.66,151.72,76.86ZM165.62,59c-.8-2.73-1.7-5.43-2.65-8.11-.8-2.24-2-4.26-4.74-4.23A5.77,5.77,0,0,0,152.37,51c-.79,2.5-1.34,5.08-2.26,7.52-2.55,6.78.62,10.66,8,10.7C164.49,69.16,167.43,65.2,165.62,59Z"/><path class="cls-1" d="M147.52,141.09c0,1.53-.83,4.16-1.64,4.32a13.12,13.12,0,0,1-6.48-.75c-1.08-.38-1.81-2-2.53-3.12-4.32-6.82-8.56-13.7-12.91-20.5-1.75-2.74-4-5-7.63-3.8-3.38,1.12-4,4.17-4,7.28,0,5.61,0,11.23-.07,16.84,0,1.2-.18,2.87-.95,3.48-1.2,1-3.1,1.39-3.73-1a14.62,14.62,0,0,1-.4-3.73c0-11.68,0-23.37,0-35.05,0-1.93-.64-4.49,2.21-5.06s5.79-.67,7.58,2.42c1.2,2.08,2.32,4.21,3.59,6.24,3.48,5.6,7,11.18,10.56,16.71,1.62,2.51,3.75,4.66,7.06,3.61a7.06,7.06,0,0,0,5.15-7.22c0-5.84,0-11.68.06-17.53a7.75,7.75,0,0,1,.45-3c.2-.46,1.53-1,1.79-.74.77.62,1.75,1.56,1.78,2.41.19,4.8.14,9.62.16,14.43,0,1.83,0,3.67,0,5.5C147.59,129,147.7,135,147.52,141.09Z"/><path class="cls-1" d="M92.29,102.84c0-2.45.68-3.94,3.34-4s3.12,1.65,3.12,3.82q0,19.4,0,38.8c0,2-.17,3.72-2.83,3.71s-3.61-1.35-3.59-3.82c0-6.52,0-13,0-19.57h0C92.33,115.43,92.39,109.13,92.29,102.84Z"/><path class="cls-1" d="M208.42,205.63c0,2,.84,4.76-2.24,5.36-2.86.56-5.74.47-7.53-2.53-2.85-4.78-5.65-9.6-8.6-14.33-1.88-3-3.89-5.92-6-8.73-1.64-2.13-3.62-4-6.72-2.88s-4,3.63-4.07,6.51c-.13,5.5,0,11-.12,16.49-.06,2.07.91,5.35-2.54,5.31s-2.46-3.34-2.48-5.37c-.12-11.68-.15-23.37,0-35,0-1.75,1-4.58,2.18-5,2.64-.93,5.72-.73,7.48,2.39s3.57,6.4,5.5,9.5c2.75,4.43,5.6,8.8,8.46,13.17,1.78,2.72,4,4.9,7.61,3.93,2.29-.61,4.82-4.85,4.84-8,0-5.61,0-11.23,0-16.84a5.26,5.26,0,0,1,.38-2.66c.38-.6,1.88-1.24,2.11-1a4.46,4.46,0,0,1,1.56,2.69c.13,6.64.07,13.28.07,19.93h.11C208.45,194.17,208.52,199.9,208.42,205.63Z"/><path class="cls-1" d="M325.82,172.07c.07-1.66.85-4.21,2-4.71,2.68-1.14,5.71-.81,7.55,2.1,1.59,2.51,2.93,5.18,4.5,7.7,3.25,5.2,6.56,10.36,9.89,15.52,1.58,2.45,3.64,4.21,6.82,3.52,2.94-.64,4.08-3,4.29-5.57.47-6,.6-12,1-18.05.13-2-1-4.88,2.28-5,.6,0,1.93,3.25,2,5q.27,17.52,0,35c0,1.78-.84,4.48-2.11,5.13a5.55,5.55,0,0,1-7.2-2.11c-2.38-3.47-4.4-7.19-6.67-10.74-2.62-4.11-5.28-8.2-8-12.23-1.71-2.5-3.93-4.31-7.22-3.29s-3.91,3.73-4,6.56c-.17,5.72-.09,11.45-.15,17.17,0,1,.14,2.29-.39,3a3.39,3.39,0,0,1-2.78,1.27,3.22,3.22,0,0,1-1.67-2.49c-.19-5.15-.14-10.3-.17-15.46,0-1.49,0-3,0-4.47C325.73,184,325.58,178,325.82,172.07Z"/><path class="cls-1" d="M74.84,167c0-3.63,2.15-5.68,5.68-5.65s4.73,1.49,4.76,5.59c.07,9.5,0,19,.24,28.51.2,6.78,2,8.34,8.79,8.67,3,.14,5.93.19,8.89.4,2.11.15,4.26,1.06,3.78,3.41-.3,1.51-2.17,3.8-3.41,3.85-8.3.32-16.62.35-24.92,0-2.41-.11-3.88-2.4-3.85-5.24.09-6.64,0-13.28,0-19.92S74.8,173.49,74.84,167Z"/><path class="cls-1" d="M218.27,171.64c0-4.86.35-5.17,5.34-5.17,5.27,0,10.55-.24,15.8.08,13.34.83,20.83,7.57,21.28,21a41.2,41.2,0,0,1-.59,8.55c-1.93,10.8-7.62,15.68-20.17,16.79-6,.53-12.13.2-18.2.26-2.8,0-3.44-1.81-3.45-4.11,0-6.53,0-13.06,0-19.59C218.26,183.56,218.25,177.6,218.27,171.64Zm5.93,31.76a7.38,7.38,0,0,0,5.84,6.51c10.6,2.55,23-3.58,23.93-15.25a31.09,31.09,0,0,0-.27-8.85c-.58-2.71-1.61-5.72-3.42-7.7-4.82-5.28-11.07-7.37-18.28-6.57-4.67.52-7.14,2.48-7.73,7.21-.52,4.19-.59,8.44-.85,12.58C223.66,195.43,223.71,199.44,224.2,203.4Z"/><path class="cls-1" d="M109.41,187.78c-.17-14.8,10.4-25.65,24.6-25.66,15.77,0,26.46,10.32,26.68,25.48a25.2,25.2,0,0,1-25.86,26C118.67,213.37,109.59,202.84,109.41,187.78Zm40.78-9.3c-2.89-7.18-8.81-10.78-16.11-10.33a17.14,17.14,0,0,0-15.79,12.47,26.1,26.1,0,0,0,.84,17.14,16.13,16.13,0,0,0,16.16,10.3c10.41-.48,16.82-7.76,17.55-19.42C152,185.24,151.49,181.7,150.2,178.48Z"/><path class="cls-2" d="M318,189.39c.88.24,1.77.48,1.76,1.58s-.9,1.34-1.72,1.56l-.8,5c.24.11.49.2.74.33a1.33,1.33,0,0,1,.77,1.21,1.37,1.37,0,0,1-.81,1.27,2.53,2.53,0,0,1-1.68.17l-2.52,4.73.39.34a1.33,1.33,0,0,1-.18,2.23,1.88,1.88,0,0,1-1.66.25l-.7-.23a25.52,25.52,0,0,1-6.16,5,1.6,1.6,0,0,0,.11.37,1.39,1.39,0,0,1-.79,2,2,2,0,0,1-2.3-.41l-.15-.17-.22-.18a26.55,26.55,0,0,1-6.51,1.52,1.91,1.91,0,0,1-2.18,1.54,1.7,1.7,0,0,1-1.66-1.49,26.34,26.34,0,0,1-6.13-1.2,1.87,1.87,0,0,1-1.6.95,2.8,2.8,0,0,1-1.28-.33c-.7-.38-.82-1-.5-2a25,25,0,0,1-6.64-4.92,9.05,9.05,0,0,1-1.47.16,1.94,1.94,0,0,1-1-.36,1.27,1.27,0,0,1-.17-2.08c.1-.11.22-.21.38-.36a27.43,27.43,0,0,1-3-5.36c-.19,0-.36,0-.53-.06a4.49,4.49,0,0,1-.87-.19,1.4,1.4,0,0,1-1-1.24,1.39,1.39,0,0,1,.83-1.34l.47-.25-.74-4.79c-1.31-.35-1.82-.8-1.8-1.6s.58-1.22,1.81-1.53l.84-5.1a6.53,6.53,0,0,1-.6-.34,1.34,1.34,0,0,1,.07-2.32,2.35,2.35,0,0,1,1.54-.3l2.92-5.17c0-.05-.17-.17-.27-.31a1.33,1.33,0,0,1,.33-2,2.07,2.07,0,0,1,1.51-.32l.65.15a26.17,26.17,0,0,1,6.8-5c0-.1.06-.16,0-.2-.42-1.1.67-1.94,1.57-2a2.21,2.21,0,0,1,1.83.76c1-.24,2-.51,3-.7s2-.28,3-.42c1.09-1.75,2.85-1.74,3.84.1a26.19,26.19,0,0,1,6.21,1.43c1.14-.81,2-.91,2.8-.34.62.42.76.86.54,1.87a24.63,24.63,0,0,1,6,4.67,5,5,0,0,1,1-.19,1.8,1.8,0,0,1,1.74,1c.34.73,0,1.26-.6,1.77a26.72,26.72,0,0,1,3,5.66,13,13,0,0,1,1.48.32,1.31,1.31,0,0,1,.93,1.26A1.38,1.38,0,0,1,318,185c-.17.1-.36.17-.58.27Zm-32-21a2,2,0,0,1-2.21,1.11,1.82,1.82,0,0,0-1.08.24,23.12,23.12,0,0,0-3.88,2.47,20.78,20.78,0,0,0-2.49,2.24c.1,1.38-.36,1.87-1.81,2.15a21.39,21.39,0,0,0-3,5.25c.56,1.31.43,1.67-.89,2.53a22.43,22.43,0,0,0-.91,5.35c1,1.06,1,1.47,0,2.58a18,18,0,0,0,.84,5.13c1.19.72,1.33,1.14.78,2.46a22.82,22.82,0,0,0,3.18,5.65c1.37.41,1.6.68,1.72,2a22.22,22.22,0,0,0,7.2,5.17,2.2,2.2,0,0,1,2.2.92,24.61,24.61,0,0,0,6.61,1.28,2.26,2.26,0,0,1,2.63-.07,22.14,22.14,0,0,0,6.79-1.47,2.47,2.47,0,0,0,.74-.48,2.07,2.07,0,0,1,1.27-.58,1.64,1.64,0,0,0,.65-.15,23.43,23.43,0,0,0,6.63-5.25,1.71,1.71,0,0,1,1.41-1.79,21.88,21.88,0,0,0,2.91-5.3c-.28-1.13-.23-1.3.73-2.15a16.59,16.59,0,0,0,.8-5.45c-.95-1.1-.94-1.42,0-2.62a17.89,17.89,0,0,0-.66-4.41c-1.19-.82-1.3-1.19-.75-2.45a22.49,22.49,0,0,0-3.21-5.92c-1.84-.46-1.93-1.21-1.81-2.19a23.07,23.07,0,0,0-6.19-4.69,2.06,2.06,0,0,1-2.6-1.18,21.74,21.74,0,0,0-6.37-1.43c-1.38.78-1.79.77-3.17,0A22.22,22.22,0,0,0,286,168.42Z"/><path class="cls-1" d="M299.84,219.7l16.76.43,0,.15a1.92,1.92,0,0,1-.45.21c-1.53.26-3.06.55-4.6.74-1.76.22-3.52.36-5.29.51-1.21.1-2.42.18-3.63.21-4,.08-8,.19-11.94.16-3,0-6.09-.16-9.13-.35a96.07,96.07,0,0,1-10.28-1.1,2.49,2.49,0,0,1-1.41-.47,5.53,5.53,0,0,1,.6-.1l1.12,0,10.26-.24,4.48-.14c.18,0,.36,0,.57-.07.21-1.41.42-2.79.63-4.16.42-2.67.82-5.34,1.27-8,.5-3,1-6,1.56-9,.38-2,.87-4,1.36-6a6,6,0,0,1,.68-1.63,1.36,1.36,0,0,1,2.39-.1,4.54,4.54,0,0,1,.66,1.52c.41,1.72.81,3.45,1.12,5.19.47,2.66.89,5.33,1.28,8,.37,2.52.68,5,1,7.57.26,2,.51,4.07.77,6.1A4.17,4.17,0,0,0,299.84,219.7Zm-6.22-24.49c-1.8,8.06-3,16.21-4.22,24.41h7.89C296.24,211.41,295.27,203.26,293.62,195.2Z"/><path class="cls-2" d="M316.92,191.12a23.58,23.58,0,1,1-23.52-24A23.76,23.76,0,0,1,316.92,191.12Zm-25.11.88a9,9,0,0,0-.89.22l-18.74,6.61c-.15.05-.3.13-.44.19.3,1.65,2.71,6,3.8,6.81l1.09-.91,10.7-9.1c1.49-1.27,3-2.56,4.46-3.84l0,0Zm2.37.29.24.58,3.88,9q2,4.75,4.08,9.5c.15.35.34.68.54,1.09a23,23,0,0,0,8.15-6.39L294.49,192ZM275.7,206.2a23.35,23.35,0,0,0,8.19,6.33l8.32-19.38c.1-.23.19-.47.28-.71,0,0,0-.05,0-.08l-.07-.09c-.06,0-.17-.07-.21,0C286.65,196.78,281.25,201.51,275.7,206.2Zm18.78-16.47,16.29-13.86a20.8,20.8,0,0,0-8.12-6.12l-8.47,19.73Zm-2.09-.22c0-.12.07-.24,0-.33q-4.16-9.74-8.33-19.47a20.89,20.89,0,0,0-8,6C277,176.74,291.79,189.25,292.39,189.51Zm1.19,25.1a22.5,22.5,0,0,0,8.93-2c-.14-.35-.25-.63-.37-.92l-5.75-13.4q-1.14-2.65-2.28-5.3c-.09-.2-.1-.52-.52-.48Zm-.49,0c0-.31.05-.48.05-.64q0-10.56,0-21.11a.57.57,0,0,0,0-.16.14.14,0,0,0,0-.07l-.08,0c-.39.52-8.45,19.24-8.64,20.11A22.29,22.29,0,0,0,293.09,214.6Zm.44-46.95v.81q0,10,0,20a2.27,2.27,0,0,0,0,.42,5.14,5.14,0,0,0,.23.62l8.58-20A22.93,22.93,0,0,0,293.52,167.65ZM293,189.22c.17-1,.14-20.87,0-21.57a22.44,22.44,0,0,0-8.51,1.86C284.83,170.75,292.59,188.67,293,189.22Zm18-13.1-16.4,14,.26.3c2-.52,19.52-6.79,20.12-7.19A22.81,22.81,0,0,0,311,176.13ZM275.73,176a22.93,22.93,0,0,0-4,7l.91.34L280,186l11.19,3.94a7.61,7.61,0,0,0,.82.18c-.12-.24-.15-.36-.22-.43Zm19.14,15.61-.07.14,16.49,14a22.46,22.46,0,0,0,3.82-7Zm-23.31,6.9c.63-.08,18.1-6.14,19.87-6.9a2.89,2.89,0,0,0,.35-.22c-.1-.11-.15-.22-.21-.22H270.39A20,20,0,0,0,271.57,198.54Zm20.12-7.9c-.78-.46-19.41-7-20.13-7.07a23.34,23.34,0,0,0-1.21,7.18h21A1.24,1.24,0,0,0,291.68,190.64Zm3.32.55v.11l20.16,7.11c.84-2,1.4-5.91,1-7.22Zm.34-.53c4.64.24,20.14.16,21,0a21.75,21.75,0,0,0-1.17-7Z"/></g></g></svg>